<svg width="128" height="128" viewBox="0 0 128 128" fill="none" xmlns="http://www.w3.org/2000/svg">
<circle cx="63.5" cy="64.5" r="46.5" fill="white"/>
<path d="M64 0C28.672 0 0 28.672 0 64C0 99.328 28.672 128 64 128C99.328 128 128 99.328 128 64C128 28.672 99.328 0 64 0ZM51.2 86.4V41.6C51.2 38.976 54.208 37.44 56.32 39.04L86.208 61.44C87.936 62.72 87.936 65.28 86.208 66.56L56.32 88.96C54.208 90.56 51.2 89.024 51.2 86.4Z" fill="black"/>
<path d="M64 0C28.672 0 0 28.672 0 64C0 99.328 28.672 128 64 128C99.328 128 128 99.328 128 64C128 28.672 99.328 0 64 0ZM51.2 86.4V41.6C51.2 38.976 54.208 37.44 56.32 39.04L86.208 61.44C87.936 62.72 87.936 65.28 86.208 66.56L56.32 88.96C54.208 90.56 51.2 89.024 51.2 86.4Z" fill="#20C37F"/>
</svg>
