<svg width="128" height="128" viewBox="0 0 128 128" fill="none" xmlns="http://www.w3.org/2000/svg">
<circle cx="63.5" cy="64.5" r="46.5" fill="white"/>
<path d="M64 0C28.672 0 0 28.672 0 64C0 99.328 28.672 128 64 128C99.328 128 128 99.328 128 64C128 28.672 99.328 0 64 0ZM51.2 89.6C47.68 89.6 44.8 86.72 44.8 83.2V44.8C44.8 41.28 47.68 38.4 51.2 38.4C54.72 38.4 57.6 41.28 57.6 44.8V83.2C57.6 86.72 54.72 89.6 51.2 89.6ZM76.8 89.6C73.28 89.6 70.4 86.72 70.4 83.2V44.8C70.4 41.28 73.28 38.4 76.8 38.4C80.32 38.4 83.2 41.28 83.2 44.8V83.2C83.2 86.72 80.32 89.6 76.8 89.6Z" fill="#2E3A59"/>
</svg>
